<svg width="968" height="198" viewBox="0 0 968 198" fill="none" xmlns="http://www.w3.org/2000/svg">
<path d="M788.336 179.09V18.1739H828.565V36.3418H834.405C836.784 29.8532 840.677 25.095 846.085 22.067C851.708 19.039 858.196 17.525 865.55 17.525H885.016V53.8609H864.901C854.52 53.8609 845.976 56.6726 839.272 62.296C832.567 67.7031 829.214 76.1382 829.214 87.6013V179.09H788.336Z" fill="#E5E1E4"/>
<path d="M666.961 183.632C655.498 183.632 645.225 181.685 636.141 177.792C627.057 173.683 619.811 167.843 614.404 160.273C609.213 152.487 606.618 143.078 606.618 132.048C606.618 121.017 609.213 111.825 614.404 104.472C619.811 96.9016 627.165 91.2781 636.465 87.6013C645.982 83.7082 656.796 81.7616 668.908 81.7616H713.03V72.6776C713.03 65.1077 710.651 58.9435 705.892 54.1853C701.134 49.2107 693.564 46.7234 683.183 46.7234C673.017 46.7234 665.447 49.1026 660.473 53.8609C655.498 58.4028 652.254 64.3507 650.74 71.7044L613.106 59.0517C615.702 50.8329 619.811 43.371 625.434 36.6662C631.274 29.7451 638.952 24.2298 648.469 20.1204C658.202 15.7947 669.989 13.6318 683.831 13.6318C705.027 13.6318 721.789 18.9308 734.118 29.5288C746.446 40.1268 752.61 55.483 752.61 75.5975V135.617C752.61 142.105 755.638 145.349 761.694 145.349H774.671V179.09H747.419C739.417 179.09 732.82 177.143 727.629 173.25C722.438 169.357 719.843 164.166 719.843 157.678V157.353H713.679C712.814 159.949 710.867 163.409 707.839 167.735C704.811 171.844 700.053 175.521 693.564 178.765C687.076 182.01 678.208 183.632 666.961 183.632ZM674.099 150.54C685.562 150.54 694.862 147.404 701.999 141.132C709.353 134.643 713.03 126.1 713.03 115.502V112.258H671.828C664.258 112.258 658.31 113.88 653.984 117.124C649.658 120.368 647.496 124.91 647.496 130.75C647.496 136.59 649.767 141.348 654.309 145.025C658.85 148.702 665.447 150.54 674.099 150.54Z" fill="#E5E1E4"/>
<path d="M518.718 183.632C503.145 183.632 488.979 180.388 476.218 173.899C463.673 167.41 453.724 158.002 446.371 145.674C439.017 133.346 435.34 118.422 435.34 100.903V96.3608C435.34 78.8418 439.017 63.9181 446.371 51.5899C453.724 39.2616 463.673 29.8532 476.218 23.3647C488.979 16.8761 503.145 13.6318 518.718 13.6318C534.074 13.6318 547.268 16.3354 558.298 21.7425C569.329 27.1497 578.196 34.6115 584.901 44.128C591.822 53.4283 596.364 64.0262 598.527 75.9219L558.947 84.357C558.082 77.8685 556.135 72.0288 553.107 66.8379C550.079 61.6471 545.754 57.5377 540.13 54.5097C534.723 51.4817 527.91 49.9677 519.691 49.9677C511.472 49.9677 504.011 51.8061 497.306 55.483C490.817 58.9436 485.626 64.2425 481.733 71.3799C478.056 78.3011 476.218 86.8443 476.218 97.0097V100.254C476.218 110.419 478.056 119.071 481.733 126.208C485.626 133.129 490.817 138.428 497.306 142.105C504.011 145.566 511.472 147.296 519.691 147.296C532.02 147.296 541.32 144.16 547.592 137.888C554.081 131.399 558.19 122.964 559.92 112.582L599.5 121.991C596.689 133.454 591.822 143.944 584.901 153.46C578.196 162.76 569.329 170.114 558.298 175.521C547.268 180.928 534.074 183.632 518.718 183.632Z" fill="#E5E1E4"/>
<path d="M356.046 183.632C335.066 183.632 317.871 179.09 304.462 170.006C291.052 160.922 282.941 147.945 280.13 131.075L317.763 121.342C319.277 128.912 321.764 134.86 325.225 139.185C328.902 143.511 333.336 146.647 338.527 148.594C343.934 150.324 349.773 151.189 356.046 151.189C365.562 151.189 372.591 149.567 377.133 146.323C381.675 142.862 383.946 138.645 383.946 133.67C383.946 128.695 381.784 124.91 377.458 122.315C373.132 119.503 366.211 117.232 356.695 115.502L347.611 113.88C336.364 111.717 326.09 108.797 316.79 105.12C307.49 101.227 300.028 95.9283 294.404 89.2234C288.781 82.5186 285.969 73.8672 285.969 63.2692C285.969 47.2641 291.809 35.0441 303.488 26.6089C315.168 17.9575 330.524 13.6318 349.557 13.6318C367.509 13.6318 382.432 17.6331 394.328 25.6357C406.224 33.6382 414.01 44.128 417.687 57.1051L379.729 68.7845C377.999 60.5657 374.43 54.726 369.023 51.2654C363.832 47.8049 357.343 46.0746 349.557 46.0746C341.771 46.0746 335.823 47.4804 331.714 50.2922C327.604 52.8876 325.549 56.5644 325.549 61.3227C325.549 66.5135 327.712 70.4066 332.038 73.0021C336.364 75.3812 342.203 77.2196 349.557 78.5173L358.641 80.1395C370.753 82.3023 381.675 85.2222 391.408 88.899C401.357 92.3596 409.144 97.4423 414.767 104.147C420.607 110.636 423.527 119.503 423.527 130.75C423.527 147.62 417.362 160.706 405.034 170.006C392.922 179.09 376.593 183.632 356.046 183.632Z" fill="#E5E1E4"/>
<path fill-rule="evenodd" clip-rule="evenodd" d="M169.083 0C223.556 1.64807e-05 267.715 44.1593 267.715 98.6318C267.715 153.104 223.556 197.263 169.083 197.263C138.932 197.263 111.942 183.733 93.8496 162.414C103.979 166.707 115.118 169.083 126.812 169.083C173.503 169.083 211.354 131.232 211.354 84.541C211.353 44.8506 184.002 11.5487 147.119 2.45508C154.182 0.848807 161.534 5.66244e-07 169.083 0ZM84.541 14.0908C111.607 14.0908 135.701 26.8107 151.175 46.5977C143.583 43.7996 135.376 42.2715 126.812 42.2715C87.9036 42.2716 56.3613 73.8137 56.3613 112.723C56.3616 144.629 77.5716 171.581 106.661 180.249C99.6106 182.155 92.1944 183.174 84.541 183.174C37.8505 183.174 0.000170105 145.322 0 98.6318C0.000164931 51.9413 37.8505 14.0911 84.541 14.0908Z" fill="#E5E1E4"/>
<path d="M913.709 152.054C913.709 137.123 925.813 125.019 940.744 125.019C955.676 125.019 967.78 137.123 967.78 152.054C967.78 166.986 955.676 179.09 940.744 179.09C925.813 179.09 913.709 166.986 913.709 152.054Z" fill="#D2BBFF"/>
</svg>
