<svg width="1024" height="209" viewBox="0 0 1024 209" fill="none" xmlns="http://www.w3.org/2000/svg">
<path d="M834.132 189.494V19.2296H876.698V38.453H882.877C885.395 31.5875 889.514 26.5528 895.235 23.3489C901.185 20.145 908.051 18.5431 915.832 18.5431H936.428V56.9898H915.145C904.16 56.9898 895.121 59.9648 888.026 65.9149C880.932 71.6361 877.385 80.5613 877.385 92.6903V189.494H834.132Z" fill="black"/>
<path d="M705.706 194.299C693.577 194.299 682.707 192.24 673.095 188.12C663.483 183.772 655.817 177.593 650.096 169.584C644.603 161.345 641.857 151.39 641.857 139.719C641.857 128.047 644.603 118.321 650.096 110.54C655.817 102.531 663.598 96.5806 673.438 92.6902C683.508 88.5709 694.95 86.5113 707.766 86.5113H754.451V76.8996C754.451 68.8899 751.934 62.3677 746.899 57.333C741.864 52.0694 733.855 49.4377 722.87 49.4377C712.114 49.4377 704.104 51.955 698.841 56.9897C693.577 61.7955 690.144 68.0889 688.542 75.8698L648.723 62.4821C651.469 53.7858 655.817 45.8905 661.767 38.7962C667.946 31.473 676.07 25.6373 686.14 21.2892C696.438 16.7122 708.91 14.4237 723.556 14.4237C745.984 14.4237 763.719 20.0305 776.764 31.2441C789.808 42.4578 796.33 58.7061 796.33 79.989V143.495C796.33 150.36 799.534 153.793 805.942 153.793H819.673V189.493H790.838C782.371 189.493 775.391 187.434 769.898 183.315C764.406 179.195 761.66 173.703 761.66 166.837V166.494H755.138C754.222 169.24 752.163 172.902 748.959 177.479C745.755 181.827 740.72 185.717 733.855 189.15C726.989 192.583 717.606 194.299 705.706 194.299ZM713.258 159.285C725.387 159.285 735.228 155.967 742.78 149.33C750.561 142.465 754.451 133.425 754.451 122.212V118.779H710.855C702.846 118.779 696.552 120.495 691.975 123.928C687.398 127.361 685.11 132.167 685.11 138.346C685.11 144.525 687.513 149.559 692.318 153.45C697.124 157.34 704.104 159.285 713.258 159.285Z" fill="black"/>
<path d="M548.851 194.299C532.374 194.299 517.385 190.867 503.882 184.001C490.609 177.136 480.082 167.181 472.301 154.136C464.52 141.092 460.63 125.301 460.63 106.764V101.959C460.63 83.4218 464.52 67.6312 472.301 54.5868C480.082 41.5424 490.609 31.5874 503.882 24.7219C517.385 17.8564 532.374 14.4237 548.851 14.4237C565.1 14.4237 579.059 17.2843 590.731 23.0056C602.402 28.7268 611.785 36.6221 618.879 46.6915C626.202 56.532 631.008 67.7456 633.297 80.3323L591.417 89.2574C590.502 82.392 588.442 76.213 585.238 70.7206C582.034 65.2283 577.457 60.8801 571.507 57.6763C565.786 54.4724 558.577 52.8704 549.881 52.8704C541.185 52.8704 533.29 54.8156 526.195 58.7061C519.33 62.3677 513.837 67.9745 509.718 75.5265C505.828 82.8497 503.882 91.8892 503.882 102.645V106.078C503.882 116.834 505.828 125.988 509.718 133.54C513.837 140.863 519.33 146.47 526.195 150.36C533.29 154.022 541.185 155.853 549.881 155.853C562.926 155.853 572.766 152.534 579.403 145.898C586.268 139.032 590.616 130.107 592.447 119.122L634.327 129.077C631.352 141.206 626.202 152.305 618.879 162.375C611.785 172.215 602.402 179.996 590.731 185.717C579.059 191.439 565.1 194.299 548.851 194.299Z" fill="black"/>
<path d="M376.729 194.299C354.531 194.299 336.337 189.493 322.149 179.882C307.96 170.27 299.378 156.539 296.403 138.689L336.223 128.391C337.825 136.4 340.457 142.694 344.118 147.271C348.009 151.848 352.7 155.166 358.192 157.226C363.914 159.056 370.093 159.972 376.729 159.972C386.799 159.972 394.236 158.256 399.042 154.823C403.848 151.161 406.251 146.699 406.251 141.435C406.251 136.172 403.962 132.167 399.385 129.421C394.808 126.445 387.485 124.043 377.416 122.212L367.804 120.495C355.904 118.207 345.034 115.117 335.193 111.227C325.353 107.108 317.457 101.501 311.507 94.4066C305.557 87.3122 302.582 78.1582 302.582 66.9446C302.582 50.0098 308.761 37.0798 321.119 28.1547C333.477 19.0007 349.725 14.4237 369.864 14.4237C388.858 14.4237 404.649 18.6574 417.236 27.1249C429.822 35.5923 438.061 46.6915 441.951 60.4224L401.788 72.7803C399.957 64.084 396.181 57.9051 390.46 54.2435C384.968 50.5819 378.102 48.7511 369.864 48.7511C361.625 48.7511 355.332 50.2386 350.984 53.2137C346.635 55.9599 344.461 59.8503 344.461 64.885C344.461 70.3774 346.75 74.4967 351.327 77.2429C355.904 79.7602 362.083 81.7054 369.864 83.0785L379.475 84.7949C392.291 87.0834 403.848 90.1728 414.146 94.0633C424.673 97.7249 432.912 103.103 438.862 110.197C445.041 117.063 448.13 126.445 448.13 138.346C448.13 156.196 441.608 170.041 428.564 179.882C415.748 189.493 398.47 194.299 376.729 194.299Z" fill="black"/>
<path d="M178.905 0C236.542 9.07124e-05 283.266 46.7244 283.267 104.361C283.267 161.998 236.542 208.723 178.905 208.723C147.003 208.723 118.445 194.407 99.3018 171.85C110.019 176.392 121.806 178.905 134.18 178.905C183.583 178.905 223.632 138.855 223.632 89.4521C223.632 47.4558 194.691 12.2194 155.665 2.59766C163.139 0.898004 170.917 2.58618e-05 178.905 0ZM89.4521 14.9092C118.091 14.9092 143.586 28.3685 159.958 49.3057C151.924 46.3447 143.24 44.7266 134.179 44.7266C93.0097 44.7269 59.6357 78.1014 59.6357 119.271C59.6359 153.031 82.079 181.549 112.859 190.72C105.399 192.737 97.5508 193.814 89.4521 193.814C40.0493 193.814 0.000129383 153.764 0 104.361C0.0001773 54.9585 40.0493 14.9095 89.4521 14.9092Z" fill="black"/>
<path d="M966.788 160.888C966.788 145.089 979.595 132.281 995.394 132.281C1011.19 132.281 1024 145.089 1024 160.888C1024 176.686 1011.19 189.494 995.394 189.494C979.595 189.494 966.788 176.686 966.788 160.888Z" fill="#D2BBFF"/>
</svg>
